<svg xmlns="http://www.w3.org/2000/svg" width="28" height="13" viewBox="0 0 28 13" fill="none">
  <path opacity="0.35" d="M0.527543 4C0.527543 2.08221 2.08221 0.527543 4 0.527543H21C22.9178 0.527543 24.4725 2.08222 24.4725 4V9C24.4725 10.9178 22.9178 12.4725 21 12.4725H4C2.08222 12.4725 0.527543 10.9178 0.527543 9V4Z" stroke="white" stroke-width="1.05509"/>
  <path opacity="0.4" d="M26 5V9.22034C26.8491 8.86291 27.4012 8.0314 27.4012 7.11017C27.4012 6.18894 26.8491 5.35744 26 5Z" fill="white"/>
  <path d="M2 4C2 2.89543 2.89543 2 4 2H15C16.1046 2 17 2.89543 17 4V9C17 10.1046 16.1046 11 15 11H4C2.89543 11 2 10.1046 2 9V4Z" fill="white"/>
</svg>