<svg xmlns="http://www.w3.org/2000/svg" width="22" height="22" viewBox="0 0 22 22" fill="none">
  <path fill-rule="evenodd" clip-rule="evenodd" d="M21 10.5358V21H15V16C15 13.7909 13.2091 12 11 12C8.79086 12 7 13.7909 7 16V21H1V10.5358L11 1L21 10.5358Z" fill="white"/>
  <path d="M21 21V21.5H21.5V21H21ZM21 10.5358H21.5V10.3217L21.3451 10.1739L21 10.5358ZM15 21H14.5V21.5H15V21ZM7 21V21.5H7.5V21H7ZM1 21H0.5V21.5H1V21ZM1 10.5358L0.654946 10.1739L0.5 10.3217V10.5358H1ZM11 1L11.3451 0.638147L11 0.309111L10.6549 0.638147L11 1ZM21.5 21V10.5358H20.5V21H21.5ZM15 21.5H21V20.5H15V21.5ZM15.5 21V16H14.5V21H15.5ZM15.5 16C15.5 13.5147 13.4853 11.5 11 11.5V12.5C12.933 12.5 14.5 14.067 14.5 16H15.5ZM11 11.5C8.51472 11.5 6.5 13.5147 6.5 16H7.5C7.5 14.067 9.067 12.5 11 12.5V11.5ZM6.5 16V21H7.5V16H6.5ZM1 21.5H7V20.5H1V21.5ZM0.5 10.5358V21H1.5V10.5358H0.5ZM10.6549 0.638147L0.654946 10.1739L1.34505 10.8976L11.3451 1.36185L10.6549 0.638147ZM21.3451 10.1739L11.3451 0.638147L10.6549 1.36185L20.6549 10.8976L21.3451 10.1739Z" fill="white"/>
</svg>