<svg xmlns="http://www.w3.org/2000/svg" width="24" height="24" viewBox="0 0 24 24" fill="none">
  <mask id="path-1-inside-1_2557_1578" fill="white">
    <path fill-rule="evenodd" clip-rule="evenodd" d="M12.2162 1.22468C12.0982 1.10203 11.9018 1.10203 11.7838 1.22468L9.11322 4.00005H3C1.89543 4.00005 1 4.89548 1 6.00005V21C1 22.1046 1.89543 23 3 23H21C22.1046 23 23 22.1046 23 21V6.00005C23 4.89548 22.1046 4.00005 21 4.00005H14.8868L12.2162 1.22468Z"/>
  </mask>
  <path d="M11.7838 1.22468L10.4868 -0.0233984L10.4868 -0.0233976L11.7838 1.22468ZM12.2162 1.22468L13.5132 -0.0233976L13.5132 -0.0233984L12.2162 1.22468ZM9.11322 4.00005V5.80005C9.60262 5.80005 10.0709 5.60077 10.4103 5.24812L9.11322 4.00005ZM14.8868 4.00005L13.5897 5.24812C13.9291 5.60077 14.3974 5.80005 14.8868 5.80005V4.00005ZM13.0809 2.47275C12.4908 3.086 11.5092 3.086 10.9191 2.47275L13.5132 -0.0233984C12.6871 -0.881946 11.3129 -0.881947 10.4868 -0.0233984L13.0809 2.47275ZM10.4103 5.24812L13.0809 2.47275L10.4868 -0.0233976L7.81619 2.75197L10.4103 5.24812ZM3 5.80005H9.11322V2.20005H3V5.80005ZM2.8 6.00005C2.8 5.88959 2.88954 5.80005 3 5.80005V2.20005C0.901318 2.20005 -0.8 3.90137 -0.8 6.00005H2.8ZM2.8 21V6.00005H-0.8V21H2.8ZM3 21.2C2.88954 21.2 2.8 21.1105 2.8 21H-0.8C-0.8 23.0987 0.901316 24.8 3 24.8V21.2ZM21 21.2H3V24.8H21V21.2ZM21.2 21C21.2 21.1105 21.1105 21.2 21 21.2V24.8C23.0987 24.8 24.8 23.0987 24.8 21H21.2ZM21.2 6.00005V21H24.8V6.00005H21.2ZM21 5.80005C21.1105 5.80005 21.2 5.88959 21.2 6.00005H24.8C24.8 3.90137 23.0987 2.20005 21 2.20005V5.80005ZM14.8868 5.80005H21V2.20005H14.8868V5.80005ZM10.9191 2.47275L13.5897 5.24812L16.1838 2.75197L13.5132 -0.0233976L10.9191 2.47275Z" fill="#C4C4C4" mask="url(#path-1-inside-1_2557_1578)"/>
  <circle cx="12" cy="12" r="3.1" stroke="#C4C4C4" stroke-width="1.8"/>
  <path d="M5 22V22C5 19.7909 6.79086 18 9 18H15C17.2091 18 19 19.7909 19 22V22" stroke="#C4C4C4" stroke-width="1.8"/>
</svg>