<svg xmlns="http://www.w3.org/2000/svg" width="22" height="23" viewBox="0 0 22 23" fill="none">
  <path d="M1.88104 7.33141C1.91728 6.75167 2.39803 6.30002 2.9789 6.30002H19.0211C19.602 6.30002 20.0827 6.75167 20.119 7.33141L20.8362 18.8067C20.9477 20.5913 19.5303 22.1 17.7422 22.1H4.2578C2.46966 22.1 1.0523 20.5913 1.16384 18.8067L1.88104 7.33141Z" stroke="white" stroke-width="1.8"/>
  <path d="M14.3 9.90002C14.3 11.7226 12.8226 13.2 11 13.2C9.17747 13.2 7.70001 11.7226 7.70001 9.90002" stroke="white" stroke-width="1.8" stroke-linecap="round"/>
  <path d="M14.3 5.95001V4.30001C14.3 2.47747 12.8226 1.00001 11 1.00001C9.17747 1.00001 7.70001 2.47747 7.70001 4.30001V5.95001" stroke="white" stroke-width="1.8" stroke-linecap="round"/>
</svg>